<svg xmlns="http://www.w3.org/2000/svg" width="760" height="320" viewBox="0 0 760 320" font-family="Consolas, 'Courier New', monospace">
  <rect x="0" y="0" width="760" height="320" rx="8" fill="#0c0c0c"/>

  <path d="M0,8 a8,8 0 0 1 8,-8 h744 a8,8 0 0 1 8,8 v28 h-760 z" fill="#2b2b2b"/>

  <rect x="12" y="11" width="14" height="14" rx="2" fill="#0c0c0c" stroke="#888" stroke-width="1"/>
  <text x="20" y="22" fill="#cfcfcf" font-size="10" text-anchor="middle">C:\</text>
  <text x="34" y="23" fill="#dcdcdc" font-size="13">Command Prompt</text>

  <text x="690" y="24" fill="#dcdcdc" font-size="15">—</text>
  <rect x="714" y="11" width="11" height="11" fill="none" stroke="#dcdcdc" stroke-width="1.3"/>
  <g stroke="#dcdcdc" stroke-width="1.5">
    <line x1="740" y1="11" x2="751" y2="22"/>
    <line x1="751" y1="11" x2="740" y2="22"/>
  </g>

  <g fill="#e8e8e8" font-size="15">
    <text x="16" y="74"><tspan fill="#e8e8e8">C:\Users\onion&gt;</tspan><tspan fill="#ffffff">whoami</tspan></text>
    <text x="16" y="96">onion</text>

    <text x="16" y="140"><tspan fill="#e8e8e8">C:\Users\onion&gt;</tspan><tspan fill="#ffffff">type about.txt</tspan></text>
    <text x="16" y="162">Programmer. I make games in C#.</text>

    <text x="16" y="206"><tspan fill="#e8e8e8">C:\Users\onion&gt;</tspan><tspan fill="#ffffff">echo %CONTACT%</tspan></text>
    <text x="16" y="228">telegram: @sellsface</text>

    <text x="16" y="272"><tspan fill="#e8e8e8">C:\Users\onion&gt;</tspan></text>
  </g>

  <rect x="156" y="260" width="9" height="16" fill="#e8e8e8">
    <animate attributeName="opacity" values="1;1;0;0" dur="1.1s" repeatCount="indefinite"/>
  </rect>
</svg>
